<svg xmlns="http://www.w3.org/2000/svg" width="235" height="87"><path fill="#6C7988" d="M217.439 82.061h-.388c-7.752 0-14.061-6.307-14.061-14.059V46.088c0-7.752 6.309-14.06 14.061-14.06h.388c7.754 0 14.061 6.307 14.061 14.06v21.914c0 7.752-6.307 14.059-14.061 14.059zm-.386-47.706c-6.469 0-11.732 5.263-11.732 11.732v21.914c0 6.47 5.265 11.731 11.732 11.731h.389c6.47 0 11.732-5.263 11.732-11.731V46.088c0-6.47-5.264-11.732-11.732-11.732l-.389-.001z"/><path fill="#6C7988" d="M217.246 48.318a2.039 2.039 0 01-2.035-2.037v-4.072c0-1.123.913-2.036 2.035-2.036 1.123 0 2.036.913 2.036 2.036v4.072a2.039 2.039 0 01-2.036 2.037zm0-6.982a.874.874 0 00-.872.873v4.072a.874.874 0 001.745 0v-4.072a.873.873 0 00-.873-.873z"/><path fill="#6C7988" d="M217.439 82.061h-.388c-7.752 0-14.061-6.307-14.061-14.059V46.088c0-5.623 3.319-10.483 8.1-12.729-6.893 1.055-10.426 6.523-10.426 13.709v22.957c0 7.933 6.431 14.363 14.362 14.363h.363c5.219 0 7.445-1.699 10.558-5.203a13.985 13.985 0 01-8.508 2.876z" opacity=".2"/><path fill="#6C7988" d="M189.488 5.854v72.565a3.76 3.76 0 01-3.756 3.755H9.277a3.758 3.758 0 01-3.754-3.755V5.854a3.76 3.76 0 013.754-3.755h176.458a3.76 3.76 0 013.753 3.755zM7.165 78.419c0 1.165.947 2.112 2.112 2.112h176.458a2.114 2.114 0 002.111-2.112V5.854a2.114 2.114 0 00-2.111-2.112H9.277a2.114 2.114 0 00-2.112 2.112v72.565z"/><path fill="#6C7988" d="M120.501 67.781v8.664a.801.801 0 01-.801.801H60.938a.8.8 0 01-.8-.801v-8.664c0-.441.359-.801.8-.801H119.7c.443 0 .801.36.801.801zm-59.563.021l.021 8.644 58.742-.021-.021-8.623H60.938zm-39.401-.021v8.664a.802.802 0 01-.8.801h-8.665a.8.8 0 01-.8-.801v-8.664c0-.441.359-.801.8-.801h8.665c.441 0 .8.36.8.801zm-9.465.021l.021 8.644 8.645-.021-.021-8.623h-8.645zm24.659-11.52v8.667a.802.802 0 01-.801.799H12.072a.8.8 0 01-.8-.799v-8.667c0-.44.359-.802.8-.802H35.93c.442 0 .801.362.801.802zm-24.659.023l.021 8.646 23.838-.022-.021-8.623H12.072v-.001zm20.963 11.476v8.664a.802.802 0 01-.8.801H23.57a.8.8 0 01-.801-.801v-8.664c0-.441.359-.801.801-.801h8.665c.441 0 .8.36.8.801zm-9.465.021l.021 8.644 8.644-.021-.021-8.623H23.57zm24.659-11.52v8.667a.801.801 0 01-.8.799h-8.665a.8.8 0 01-.801-.799v-8.667c0-.44.359-.802.801-.802h8.665c.441 0 .8.362.8.802zm-9.465.023l.021 8.646 8.645-.022-.021-8.623h-8.645v-.001zm34.103-.023v8.667a.808.808 0 01-.814.799h-9.048a.806.806 0 01-.814-.799v-8.667a.81.81 0 01.814-.802h9.048a.81.81 0 01.814.802zm-9.862.023l.007 8.646 9.041-.022-.007-8.623h-9.041v-.001zm21.77-.023v8.667a.808.808 0 01-.814.799h-9.048a.806.806 0 01-.814-.799v-8.667c0-.44.366-.802.814-.802h9.048a.81.81 0 01.814.802zm-9.862.023l.007 8.646 9.041-.022-.007-8.623h-9.041v-.001zm21.771-.023v8.667a.808.808 0 01-.814.799h-9.048a.806.806 0 01-.813-.799v-8.667a.81.81 0 01.813-.802h9.048a.81.81 0 01.814.802zm-9.863.023l.008 8.646 9.041-.022-.007-8.623h-9.042v-.001zm21.771-.023v8.667a.808.808 0 01-.814.799H98.73a.806.806 0 01-.814-.799v-8.667a.81.81 0 01.814-.802h9.048a.81.81 0 01.814.802zm-9.862.023l.007 8.646 9.041-.022-.007-8.623H98.73v-.001zm21.771-.023v8.667a.809.809 0 01-.813.799h-9.048a.806.806 0 01-.814-.799v-8.667a.81.81 0 01.814-.802h9.048a.81.81 0 01.813.802zm-9.862.023l.008 8.646 9.041-.022-.006-8.623h-9.043v-.001zm21.771-.023v8.667a.81.81 0 01-.814.799h-9.049a.807.807 0 01-.813-.799v-8.667a.81.81 0 01.813-.802h9.049c.448 0 .814.362.814.802zm-9.863.023l.008 8.646 9.041-.022-.008-8.623h-9.041v-.001zm21.771-.023v8.667a.808.808 0 01-.814.799h-9.049a.806.806 0 01-.813-.799v-8.667c0-.44.363-.802.813-.802h9.049a.81.81 0 01.814.802zm-9.863.023l.008 8.646 9.041-.022-.008-8.623h-9.041v-.001zm21.772-.023v8.667a.808.808 0 01-.813.799h-9.048a.806.806 0 01-.813-.799v-8.667a.81.81 0 01.813-.802h9.048a.81.81 0 01.813.802zm-9.863.023l.008 8.646 9.04-.022-.008-8.623h-9.04v-.001zm-66.926-11.11v8.664a.81.81 0 01-.814.802h-9.048a.808.808 0 01-.814-.802v-8.664c0-.441.365-.799.814-.799h9.048c.448 0 .814.358.814.799zm-9.863.022l.007 8.645 9.042-.021-.007-8.624h-9.042zm21.771-.022v8.664a.809.809 0 01-.814.802h-9.048a.808.808 0 01-.814-.802v-8.664c0-.441.365-.799.814-.799h9.048c.448 0 .814.358.814.799zm-9.863.022l.007 8.645 9.042-.021-.007-8.624h-9.042zm21.771-.022v8.664a.81.81 0 01-.814.802h-9.049a.808.808 0 01-.814-.802v-8.664c0-.441.366-.799.814-.799h9.049c.449 0 .814.358.814.799zm-9.862.022l.008 8.645 9.041-.021-.008-8.624h-9.041zm21.771-.022v8.664a.81.81 0 01-.814.802H105.3a.808.808 0 01-.813-.802v-8.664c0-.441.365-.799.813-.799h9.049c.448 0 .814.358.814.799zm-9.863.022l.008 8.645 9.041-.021-.007-8.624H105.3zm21.77-.022v8.664a.808.808 0 01-.813.802h-9.048a.808.808 0 01-.814-.802v-8.664c0-.441.365-.799.814-.799h9.048c.449 0 .813.358.813.799zm-9.861.022l.008 8.645 9.04-.021-.007-8.624h-9.041zm21.77-.022v8.664a.809.809 0 01-.813.802h-9.049a.807.807 0 01-.813-.802v-8.664c0-.441.364-.799.813-.799h9.049c.447 0 .813.358.813.799zm-9.862.022l.008 8.645 9.041-.021-.008-8.624h-9.041zm21.772-.022v8.664a.809.809 0 01-.814.802h-9.049a.808.808 0 01-.813-.802v-8.664c0-.441.364-.799.813-.799h9.049c.448 0 .814.358.814.799zm-9.864.022l.008 8.645 9.04-.021-.007-8.624h-9.041zm21.771-.022v8.664a.808.808 0 01-.813.802h-9.047a.807.807 0 01-.813-.802v-8.664c0-.441.364-.799.813-.799h9.047c.449 0 .813.358.813.799zm-9.86.022l.008 8.645 9.039-.021-.006-8.624h-9.041zm30.392-.022v8.664a.809.809 0 01-.814.802h-17.671a.808.808 0 01-.813-.802v-8.664c0-.441.365-.799.813-.799h17.671c.449 0 .814.358.814.799zm-18.485.022l.009 8.645 17.662-.021-.007-8.624h-17.664zM99.969 34.108v8.666c0 .441-.365.8-.813.8h-9.049a.808.808 0 01-.813-.8v-8.666c0-.441.365-.8.813-.8h9.049c.448 0 .813.359.813.8zm-9.863.021l.007 8.645 9.042-.022-.008-8.623h-9.041zm21.771-.021v8.666c0 .441-.365.8-.814.8h-9.048a.808.808 0 01-.813-.8v-8.666c0-.441.365-.8.813-.8h9.048c.449 0 .814.359.814.8zm-9.862.021l.008 8.645 9.04-.022-.007-8.623h-9.041zm21.771-.021v8.666c0 .441-.365.8-.813.8h-9.049a.808.808 0 01-.813-.8v-8.666c0-.441.365-.8.813-.8h9.049c.448 0 .813.359.813.8zm-9.863.021l.008 8.645 9.042-.022-.008-8.623h-9.042zm21.77-.021v8.666c0 .441-.364.8-.813.8h-9.049a.808.808 0 01-.813-.8v-8.666c0-.441.364-.8.813-.8h9.049c.449 0 .813.359.813.8zm-9.861.021l.008 8.645 9.041-.022-.008-8.623h-9.041zm21.772-.021v8.666c0 .441-.364.8-.813.8h-9.049a.808.808 0 01-.813-.8v-8.666c0-.441.364-.8.813-.8h9.049c.447 0 .813.359.813.8zm-9.864.021l.008 8.645 9.041-.022-.008-8.623h-9.041zm21.772-.021v8.666c0 .441-.365.8-.813.8h-9.05a.808.808 0 01-.813-.8v-8.666c0-.441.364-.8.813-.8h9.05c.447 0 .813.359.813.8zm-9.864.021l.009 8.645 9.04-.022-.008-8.623h-9.041zm21.772-.021v8.666c0 .441-.365.8-.813.8h-9.051a.808.808 0 01-.813-.8v-8.666c0-.441.365-.8.813-.8h9.051c.448 0 .813.359.813.8zm-9.863.021l.008 8.645 9.043-.022-.008-8.623h-9.043zm21.771-.021v8.666c0 .441-.365.8-.814.8h-9.047a.808.808 0 01-.814-.8v-8.666c0-.441.365-.8.814-.8h9.047c.449 0 .814.359.814.8zm-9.861.021l.008 8.645 9.039-.022-.007-8.623h-9.04zm-133.04-.021v8.666c0 .441-.365.8-.814.8h-9.048a.808.808 0 01-.814-.8v-8.666c0-.441.365-.8.814-.8h9.048c.449 0 .814.359.814.8zm-9.863.021l.007 8.645 9.041-.022-.007-8.623h-9.041zm-2.046-.021v8.666c0 .441-.365.8-.814.8H12.085a.808.808 0 01-.814-.8v-8.666c0-.441.365-.8.814-.8h15.619c.449 0 .814.359.814.8zm-16.433.021l.007 8.645 15.612-.022-.007-8.623H12.085zm18.896 11.066v8.664a.809.809 0 01-.813.802H12.085a.808.808 0 01-.814-.802v-8.664c0-.441.365-.799.814-.799h18.083c.449 0 .813.358.813.799zm-18.896.022l.007 8.645 18.076-.021-.007-8.624H12.085zm40.25-11.109v8.666c0 .441-.365.8-.814.8h-9.048a.808.808 0 01-.814-.8v-8.666c0-.441.365-.8.814-.8h9.048c.449 0 .814.359.814.8zm-9.862.021l.007 8.645 9.041-.022-.007-8.623h-9.041zm21.771-.021v8.666c0 .441-.366.8-.814.8h-9.048a.808.808 0 01-.814-.8v-8.666c0-.441.365-.8.814-.8h9.048c.448 0 .814.359.814.8zm-9.863.021l.007 8.645 9.042-.022-.008-8.623h-9.041zM43.712 45.195v8.664a.81.81 0 01-.815.802H33.85a.808.808 0 01-.814-.802v-8.664c0-.441.365-.799.814-.799h9.047c.449 0 .815.358.815.799zm-9.862.022l.007 8.645 9.041-.021-.006-8.624H33.85zm21.77-.022v8.664a.809.809 0 01-.814.802h-9.047a.809.809 0 01-.815-.802v-8.664c0-.441.366-.799.815-.799h9.047c.449 0 .814.358.814.799zm-9.862.022l.007 8.645 9.041-.021-.006-8.624h-9.042zm21.77-.022v8.664a.809.809 0 01-.813.802h-9.049a.808.808 0 01-.814-.802v-8.664c0-.441.366-.799.814-.799h9.049c.449 0 .813.358.813.799zm-9.862.022l.008 8.645 9.041-.021-.007-8.624h-9.042zm18.486-11.109v8.666c0 .441-.366.8-.815.8H66.29a.808.808 0 01-.814-.8v-8.666c0-.441.365-.8.814-.8h9.047c.45 0 .815.359.815.8zm-9.862.021l.006 8.645 9.041-.022-.007-8.623h-9.04zm21.771-.021v8.666c0 .441-.365.8-.814.8h-9.048a.809.809 0 01-.815-.8v-8.666c0-.441.366-.8.815-.8h9.048c.448 0 .814.359.814.8zm-9.862.021l.007 8.645 9.041-.022-.007-8.623h-9.041zm2.881-11.108v8.666c0 .441-.366.8-.815.8h-9.048a.808.808 0 01-.814-.8v-8.666c0-.441.365-.8.814-.8h9.048c.449 0 .815.359.815.8zm-9.863.021l.007 8.645 9.041-.021-.007-8.624h-9.041zm21.771-.021v8.666c0 .441-.365.8-.814.8h-9.048a.808.808 0 01-.814-.8v-8.666c0-.441.365-.8.814-.8h9.048c.45 0 .814.359.814.8zm-9.862.021l.007 8.645 9.042-.021-.007-8.624h-9.042zm21.77-.021v8.666c0 .441-.365.8-.814.8h-9.048a.808.808 0 01-.813-.8v-8.666c0-.441.365-.8.813-.8h9.048c.449 0 .814.359.814.8zm-9.862.021l.008 8.645 9.041-.021-.007-8.624h-9.042zm21.771-.021v8.666c0 .441-.366.8-.814.8h-9.048a.807.807 0 01-.813-.8v-8.666c0-.441.365-.8.813-.8h9.048c.448 0 .814.359.814.8zm-9.862.021l.008 8.645 9.04-.021-.007-8.624h-9.041zm21.77-.021v8.666c0 .441-.365.8-.814.8h-9.047a.807.807 0 01-.813-.8v-8.666c0-.441.364-.8.813-.8h9.047c.451 0 .814.359.814.8zm-9.861.021l.008 8.645 9.041-.021-.008-8.624h-9.041zm21.77-.021v8.666c0 .441-.365.8-.813.8h-9.049a.808.808 0 01-.813-.8v-8.666c0-.441.365-.8.813-.8h9.049c.448 0 .813.359.813.8zm-9.862.021l.008 8.645 9.041-.021-.008-8.624h-9.041zm21.771-.021v8.666c0 .441-.366.8-.814.8h-9.049a.808.808 0 01-.813-.8v-8.666c0-.441.363-.8.813-.8h9.049c.448 0 .814.359.814.8zm-9.863.021l.008 8.645 9.041-.021-.008-8.624h-9.041zm21.771-.021v8.666c0 .441-.365.8-.814.8h-9.049a.808.808 0 01-.813-.8v-8.666c0-.441.364-.8.813-.8h9.049c.449 0 .814.359.814.8zm-9.863.021l.008 8.645 9.041-.021-.007-8.624h-9.042zm28.752-.021v8.666c0 .441-.365.8-.814.8h-16.027a.808.808 0 01-.813-.8v-8.666c0-.441.365-.8.813-.8h16.027c.449 0 .814.359.814.8zm-16.844.021l.009 8.645 16.021-.021-.007-8.624h-16.023zm-144.947-.021v8.666c0 .441-.365.8-.814.8h-8.637a.808.808 0 01-.814-.8v-8.666c0-.441.365-.8.814-.8h8.637c.449 0 .814.359.814.8zm-9.452.021l.007 8.645 8.63-.021-.006-8.624h-8.631zm21.361-.021v8.666c0 .441-.365.8-.814.8h-9.048a.808.808 0 01-.814-.8v-8.666c0-.441.366-.8.814-.8h9.048c.449 0 .814.359.814.8zm-9.863.021l.007 8.645 9.041-.021-.007-8.624h-9.041zm21.771-.021v8.666c0 .441-.365.8-.814.8h-9.048a.808.808 0 01-.814-.8v-8.666c0-.441.365-.8.814-.8h9.048c.449 0 .814.359.814.8zm-9.862.021l.007 8.645 9.041-.021-.007-8.624h-9.041zm21.771-.021v8.666c0 .441-.365.8-.814.8H47.4a.808.808 0 01-.814-.8v-8.666c0-.441.365-.8.814-.8h9.048c.449 0 .815.359.815.8zm-9.863.021l.007 8.645 9.042-.021-.007-8.624H47.4zm21.771-.021v8.666c0 .441-.366.8-.814.8h-9.048a.808.808 0 01-.814-.8v-8.666c0-.441.365-.8.814-.8h9.048c.449 0 .814.359.814.8zm-9.862.021l.007 8.645 9.041-.021-.007-8.624h-9.041zm-37.361-7.001v4.147a.808.808 0 01-.814.801h-9.048a.808.808 0 01-.814-.801v-4.147c0-.441.365-.801.814-.801h9.048c.449 0 .814.359.814.801zm-9.863.021l.007 4.126 9.042-.02-.007-4.106h-9.042zm22.182-.021v4.147a.808.808 0 01-.814.801h-9.458a.808.808 0 01-.814-.801v-4.147c0-.441.365-.801.814-.801h9.458c.449 0 .814.359.814.801zm-10.273.021l.007 4.126 9.452-.02-.007-4.106h-9.452zm22.592-.021v4.147a.808.808 0 01-.814.801h-9.458a.808.808 0 01-.814-.801v-4.147c0-.441.365-.801.814-.801h9.458c.449 0 .814.359.814.801zm-10.273.021l.007 4.126 9.452-.02-.007-4.106h-9.452zm22.592-.021v4.147a.808.808 0 01-.814.801h-9.458a.808.808 0 01-.814-.801v-4.147a.81.81 0 01.814-.801h9.458c.449 0 .814.359.814.801zm-10.273.021l.007 4.126 9.451-.02-.007-4.106h-9.451zm22.592-.021v4.147a.808.808 0 01-.814.801h-9.459a.808.808 0 01-.814-.801v-4.147c0-.441.365-.801.814-.801h9.459c.449 0 .814.359.814.801zm-10.273.021l.007 4.126 9.452-.02-.007-4.106h-9.452zm22.592-.021v4.147a.808.808 0 01-.814.801H73.27a.808.808 0 01-.814-.801v-4.147a.81.81 0 01.814-.801h9.459c.449 0 .814.359.814.801zm-10.272.021l.007 4.126 9.452-.02-.007-4.106h-9.452zm22.591-.021v4.147a.808.808 0 01-.814.801h-9.459a.807.807 0 01-.813-.801v-4.147c0-.441.365-.801.813-.801h9.459c.45 0 .814.359.814.801zm-10.273.021l.008 4.126 9.451-.02-.007-4.106h-9.452zm22.593-.021v4.147a.808.808 0 01-.813.801H97.91a.807.807 0 01-.813-.801v-4.147c0-.441.365-.801.813-.801h9.459c.447 0 .813.359.813.801zm-10.273.021l.007 4.126 9.452-.02-.007-4.106h-9.452zm22.592-.021v4.147a.809.809 0 01-.813.801h-9.459a.807.807 0 01-.813-.801v-4.147c0-.441.365-.801.813-.801h9.459c.447 0 .813.359.813.801zm-10.273.021l.008 4.126 9.452-.02-.008-4.106h-9.452zm22.592-.021v4.147a.808.808 0 01-.814.801h-9.459a.808.808 0 01-.813-.801v-4.147c0-.441.365-.801.813-.801h9.459c.449 0 .814.359.814.801zm-10.273.021l.008 4.126 9.451-.02-.007-4.106h-9.452zm22.592-.021v4.147a.808.808 0 01-.813.801h-9.46a.808.808 0 01-.813-.801v-4.147c0-.441.365-.801.813-.801h9.46c.447 0 .813.359.813.801zm-10.274.021l.009 4.126 9.451-.02-.007-4.106h-9.453zm22.593-.021v4.147a.808.808 0 01-.813.801h-9.459a.807.807 0 01-.813-.801v-4.147c0-.441.363-.801.813-.801h9.459c.448 0 .813.359.813.801zm-10.272.021l.008 4.126 9.451-.02-.008-4.106h-9.451zm22.591-.021v4.147a.808.808 0 01-.814.801h-9.459a.808.808 0 01-.813-.801v-4.147c0-.441.363-.801.813-.801h9.459c.449 0 .814.359.814.801zm-10.273.021l.008 4.126 9.451-.02-.007-4.106h-9.452zm23.824-.021v4.147a.808.808 0 01-.814.801h-10.689a.807.807 0 01-.813-.801v-4.147c0-.441.365-.801.813-.801h10.689c.449 0 .814.359.814.801zm-11.505.021l.009 4.126 10.682-.02-.007-4.106h-10.684zm11.505 40.22v8.667a.808.808 0 01-.814.799h-24.24a.806.806 0 01-.813-.799v-8.667a.81.81 0 01.813-.802h24.24a.81.81 0 01.814.802zm-25.057.023l.008 8.646 24.234-.022-.008-8.623h-24.234v-.001zm-97.313-.023v8.667a.802.802 0 01-.801.799H50.26a.8.8 0 01-.801-.799v-8.667c0-.44.359-.802.801-.802h9.897c.442 0 .801.362.801.802zm-10.697.023l.021 8.646 9.876-.022-.021-8.623h-9.876v-.001zm-5.318 11.476v8.664a.802.802 0 01-.8.801h-9.076a.8.8 0 01-.8-.801v-8.664c0-.441.359-.801.8-.801h9.076c.441 0 .8.36.8.801zm-9.876.021l.021 8.644 9.055-.021-.021-8.623h-9.055zm23.838-.021v8.664a.802.802 0 01-.8.801H46.976a.8.8 0 01-.801-.801v-8.664c0-.441.36-.801.801-.801h11.129c.441 0 .8.36.8.801zm-11.929.021l.021 8.644 11.108-.021-.021-8.623H46.976zm99.395-.021v8.664a.802.802 0 01-.801.801h-9.075a.801.801 0 01-.802-.801v-8.664c0-.441.358-.801.802-.801h9.075c.442 0 .801.36.801.801zm-9.876.021l.021 8.644 9.055-.021-.021-8.623h-9.055zm34.925-.021v8.664a.8.8 0 01-.801.801h-9.075a.8.8 0 01-.8-.801v-8.664a.8.8 0 01.8-.801h9.075a.8.8 0 01.801.801zm-9.876.021l.021 8.644 9.056-.021-.021-8.623h-9.056zm-2.032 4.907v3.736a.802.802 0 01-.801.801h-9.076a.8.8 0 01-.8-.801v-3.736c0-.441.358-.801.8-.801h9.076c.441 0 .801.36.801.801zm-9.877.02l.021 3.717 9.055-.021-.021-3.695h-9.055zm33.693-.02v3.736a.802.802 0 01-.801.801h-9.075a.8.8 0 01-.8-.801v-3.736a.8.8 0 01.8-.801h9.075c.442 0 .801.36.801.801zm-9.876.02l.021 3.717 9.057-.021-.021-3.695h-9.057zm-38.989-4.948v8.664a.802.802 0 01-.801.801h-11.129a.8.8 0 01-.801-.801v-8.664c0-.441.358-.801.801-.801h11.129c.442 0 .801.36.801.801zm-11.93.021l.021 8.644 11.107-.021-.021-8.623h-11.107z"/><path fill="#6C7988" d="M5.999 78.419a3.76 3.76 0 003.755 3.755l176.323-.063c.452 0 1.021-.312 1.424-.459v.464c-.319 2.272-2.416 2.754-4.485 2.754H8.057c-2.07 0-4.521-1.794-4.521-3.864V9.549A3.758 3.758 0 016 6.028l-.001 72.391z" opacity=".2"/><path d="M54.556 34.65c-.498-.277-1.925-.106-3.64.426-3.001 2.051-5.533 5.072-5.71 9.924-.032.117-.328-.014-.386-.049-.811-1.554-1.131-3.192-.455-5.551.125-.21-.287-.469-.361-.394-.149.146-.769.807-1.18 1.521-2.037 3.536-.704 8.067 2.861 10.049a7.389 7.389 0 0010.053-2.865c2.297-4.109.164-12.308-1.182-13.061zm12.764 1.975c-4.23 0-7.297 3.145-7.297 7.472 0 4.367 3.062 7.416 7.444 7.416 2.214 0 3.967-.693 5.359-2.117.417-.451.462-.885.462-1.049 0-.707-.525-1.221-1.248-1.221-.365 0-.67.139-1.021.461-.789.734-1.827 1.488-3.553 1.488-2.399 0-4.35-1.803-4.473-4.113h9.548c1.039 0 1.541-.488 1.541-1.484 0-.295 0-.506-.057-.926-.517-3.709-3.022-5.927-6.705-5.927zm0 2.317c2.29 0 3.762 1.465 3.853 3.821h-8.177c.214-2.183 2.06-3.821 4.324-3.821zm15.879-2.317c-1.92 0-3.819 1.105-4.563 2.639v-.95c0-1.465-1.138-1.542-1.366-1.542-.674 0-1.395.407-1.395 1.542v11.448c0 1.525 1.212 1.605 1.453 1.605.242 0 1.455-.078 1.455-1.605v-6.136c0-2.67 1.513-4.534 3.68-4.534 2.097 0 3.117 1.374 3.117 4.207v6.463c0 1.525 1.211 1.605 1.453 1.605.245 0 1.457-.078 1.457-1.605v-7.374c0-2.788-1.389-5.763-5.291-5.763zm18.45.147c-.674 0-1.158.392-1.451 1.164L96.22 47.941l-3.951-10.005c-.304-.783-.791-1.164-1.476-1.164-.804 0-1.453.629-1.453 1.393 0 .194.021.439.181.828l4.569 10.794c.549 1.303 1.443 1.576 2.101 1.576.658 0 1.556-.273 2.099-1.576l4.601-10.856c.16-.38.185-.66.185-.793-.002-.777-.614-1.366-1.427-1.366zm8.459-.147c-1.863 0-3.594.52-4.881 1.459-.434.299-.646.677-.646 1.148 0 .649.495 1.158 1.129 1.158.277 0 .58-.109.863-.307 1.104-.737 2.143-1.081 3.27-1.081 2.148 0 3.384 1.092 3.384 3.001v.316c-4.827.006-9.74.586-9.74 4.785 0 3.025 2.586 4.379 5.147 4.379 2.037 0 3.666-.807 4.71-2.336v.732c0 1.098.735 1.486 1.366 1.486.133 0 1.305-.043 1.305-1.486V42.18c.003-3.477-2.207-5.555-5.907-5.555zm2.506 7.838h.612v.67c0 2.449-1.563 4.035-3.976 4.035-.657 0-2.795-.156-2.795-2.121.001-2.318 3.516-2.584 6.159-2.584zm10.976-5.049c1.273 0 1.335-.99 1.335-1.188 0-.589-.35-1.217-1.335-1.217h-2.617V34.36c0-1.183-.767-1.601-1.425-1.601-.244 0-1.453.077-1.453 1.601v12.57c0 2.9 1.43 4.434 4.135 4.434.7 0 1.385-.121 1.832-.332.512-.256.805-.674.805-1.152 0-.672-.488-1.158-1.159-1.158-.13 0-.313.031-.519.09a2.28 2.28 0 01-.602.088c-1.103 0-1.614-.723-1.614-2.264v-7.221h2.617v-.001zm9.618-2.789c-4.401 0-7.592 3.121-7.592 7.414 0 2.092.772 4 2.179 5.367 1.393 1.359 3.313 2.104 5.41 2.104 4.343 0 7.621-3.211 7.621-7.471 0-4.295-3.203-7.414-7.618-7.414zm0 12.422c-3.017 0-4.593-2.521-4.593-5.008 0-3.419 2.38-4.977 4.593-4.977s4.596 1.558 4.596 4.977c-.002 3.443-2.383 5.008-4.596 5.008z" opacity=".1"/></svg>